<svg id="Layer_2" data-name="Layer 2" xmlns="http://www.w3.org/2000/svg" width="1000" height="768.682" viewBox="0 0 1000 768.682"><defs><style>.cls-1{fill:#231f20;}</style></defs><path class="cls-1" d="M578.9414,142.6818s1.7369-3.1672,3.9072-8.39C579.7025,133.1969,578.9414,142.6818,578.9414,142.6818Z" transform="translate(0 -14.8159)"/><path class="cls-1" d="M999.7089,302.5141C994.5059,276.4949,969.23,165.7274,910.5,127.07S865.1531,50.4993,827.24,43.8087,733.57,28.9407,721.6754,51.9862s-20.8158,66.1631-14.8679,73.597,40.8868,8.1778,63.1888,0,39.4015-14.8678,60.2161,2.23,6.6906,124.8923,43.8616,154.6287c0,0-25.2761-8.9209-31.2231-19.3287s-62.4461-28.2494-95.1566,8.1775-55.0117,60.2159-55.0117,60.2159l39.4-60.2159s-17.8417-28.2494-62.4461-8.9208-55.0118,36.4269-75.8275,31.9664c0,0-.1491.12-.393.3128-16.7114-8.6767-29.5571-26.3808-28.136-43.43,1.4865-17.8417,11.1511-40.8875,23.0449-54.2686s17.8417-45.3478,13.3814-55.012-11.1511-4.4606-11.1511-4.4606c16.3552-60.9594-12.6376-85.4917-12.6376-85.4917,14.1252-2.9736,20.072-37.17,20.072-37.17-19.3282,26.0192-103.3339-.7435-134.557,5.9473s-34.94,31.223-34.94,31.223c-30.6133,24.5764-18.5562,64.94-11.3418,82.3053-1.2555.4373-2.8913,2.5554-5.0137,7.647-7.4332,17.8417,20.8158,63.9328,26.7628,95.8992s-11.8938,52.0386-32.71,56.4989-31.223-12.638-75.8275-31.9664-62.4461,8.9208-62.4461,8.9208l39.4,60.2159s-22.3022-23.7889-55.0117-60.2159-89.2087-18.5852-95.1555-8.1775-31.2231,19.3287-31.2231,19.3287c37.17-29.7364,23.0447-137.53,43.8605-154.6287s37.9138-10.4075,60.2161-2.23,57.2418,7.4342,63.19,0-2.9739-50.5514-14.8688-73.597-67.6493-14.868-105.563-8.1775S148.2291,88.4132,89.5,127.07,5.4952,276.4949.2911,302.5141s60.2158,46.8347,129.3525,96.6428,128.6091,40.1439,128.6091,40.1439V403.6175s11.8949,51.295,31.223,103.3334S351.1792,600.62,351.1792,600.62c17.0979-23.0456,30.4793-75.8276,30.4793-75.8276-8.1771,66.1634-57.9856,194.029-57.9856,194.029,82.4668,9.0093,164.92,57.4166,175.7243,63.9409v.7355s.207-.1284.6032-.37c.3966.2415.6035.37.6035.37v-.7355c10.8036-6.5243,93.2564-54.9316,175.7232-63.9409,0,0-49.8074-127.8656-57.9856-194.029,0,0,13.3814,52.782,30.48,75.8276,0,0,42.3742-41.6306,61.7024-93.6692s31.223-103.3334,31.223-103.3334v35.6833s59.4721,9.6642,128.6091-40.1439S1004.9133,328.5333,999.7089,302.5141Z" transform="translate(0 -14.8159)"/></svg>